<svg width="699" height="1363" viewBox="0 0 699 1363" fill="none" xmlns="http://www.w3.org/2000/svg">
<g style="mix-blend-mode:darken" filter="url(#filter0_f_146_171)">
<path fill-rule="evenodd" clip-rule="evenodd" d="M12.5681 267.176L145.135 63.5004L128.153 158.926L196.093 151.751L163.616 177.82L207.348 177.097L169.062 217.721L157.064 183.079L149.716 188.977L179.938 239.551L129.037 225.066L149.446 189.193L118.32 214.177L110.383 258.78L250.641 220.281L243.515 230.57L266.169 242.862L245.981 264.867L238.143 238.327L145.663 311.409C134.881 326.976 120.641 336.648 105.546 340.562L104.626 345.731L97.7754 342.06C85.9331 343.575 46.2913 441.884 35.1619 436.601C25.5925 448.927 16.6939 462.869 8.87219 477.558C0.587708 493.115 -6.25122 509.063 -11.3306 524.232C8.16815 510.999 28.4975 499.149 50.2029 488.799C90.7433 469.468 135.708 455.547 188.582 447.39L262.835 352.432L224.26 356.151L222.316 329.967L268.075 345.731L269.419 344.012L269.369 346.177L282.127 350.572L269.24 351.814L268.231 395.796L453.864 230.238L398.592 356.436L606.508 220.975L507.732 384.048L666 419.311L485.324 475.256L598.056 517.707L436.983 539.113L487.874 589.224L406.729 591.403L421.26 541.203L373.088 547.605L398.198 570.252L301.969 577.045L301.64 577.797L300.947 577.118L246.775 580.942C221.899 582.698 200.857 565.777 191.608 541.887L180.676 540.571L186.641 517.953C186.335 510.739 187.04 503.289 188.907 495.824C190.022 491.365 191.483 487.174 193.24 483.271C142.4 491.06 99.8764 504.3 61.9675 522.363L104.626 548.734L138.934 545.308L124.115 560.781C124.115 560.781 158.5 551 182.01 560.781C124.115 577.797 80.5 630 80.5 630C80.5 630 175.43 609.383 202.309 621.953C37 671 25.5126 744.498 25.5126 744.498C25.5126 744.498 82 702 139.612 708.5C16 758 -131.125 946.5 -65.2444 1130.5C-211.842 1100.7 -193.847 635.798 -193.847 635.798L-264.174 618.892L-139.755 434.795L-78.6512 567.033L-65.2444 565.694C-60.4095 561.555 -55.5532 557.505 -50.6656 553.544C-46.2466 523.76 -34.0165 489.571 -17.3876 458.343C-9.50049 443.532 -0.445312 429.05 9.52332 415.772C7.23541 412.857 5.08752 409.708 3.10229 406.326L-26.461 383.553L-21.9699 376.653L-28.1425 375.57L11.8867 214.532L12.5681 267.176ZM58.9329 553.296L60.7711 522.936C38.9724 533.408 18.5683 545.541 -1.13629 559.293L58.9329 553.296Z" fill="#D3D3D5" fill-opacity="0.8"/>
<path d="M-268.668 1235.56C-276.852 1224.21 -280.954 1208.69 -278.09 1192.2C-271.827 1156.14 -236.206 1139.25 -210.317 1160.07L-131.125 1223.76L-156.106 1231.41L-118.192 1297.78L-177.863 1289.05L-145.224 1330.5L-255.202 1276.33C-268.781 1269.65 -274.827 1251.1 -268.668 1235.56Z" fill="#D3D3D5" fill-opacity="0.8"/>
<path d="M181.844 719.451L147.931 717.411L151.034 729.123L146.554 724.693L139.612 747.096L121.972 749.791L124.848 756.234L98.5822 769.392L63.5 775.999L67.8381 784.793L65.1791 786.125L68.3742 785.879L76.8199 803L104.243 783.125L135.77 780.705L136.992 783.442L176.933 766.204C176.933 766.204 210.251 759.392 234.251 769.392C227.251 753.892 193.704 752.459 193.704 752.459C193.704 752.459 233.251 739.392 264.179 750.902C248.751 730.892 203.949 728.779 203.949 728.779L219.751 711.467L187.226 719.775L182.01 716.967L181.844 719.451Z" fill="#D3D3D5" fill-opacity="0.8"/>
<path d="M63.2367 471.891L39.2498 441.983L37.4988 483.467L63.2367 471.891Z" fill="#D3D3D5" fill-opacity="0.8"/>
<path d="M127 405.17L169.062 321C169.062 321 140.5 353.576 73.9999 405.17C107.5 388.28 127 405.17 127 405.17Z" fill="#D3D3D5" fill-opacity="0.8"/>
<path d="M73.6757 125.5L110.176 33L31.1757 123.079L73.6757 125.5Z" fill="#D3D3D5" fill-opacity="0.8"/>
<path d="M53.0999 866.484L19.1864 864.444L22.2897 876.157L17.8098 871.726L10.8674 894.129L-6.77222 896.825L-3.89655 903.268L-30.1622 916.425L-65.2444 923.032L-60.9062 931.826L-63.5653 933.158L-60.3702 932.913L-51.9244 950.033L-24.5017 930.159L7.02551 927.738L8.24731 930.475L29.1882 913.313L70.9388 924.272L45.9597 899.567L51.1752 895.293L50.7362 901.862L116.434 898.01L75.2049 875.812L88.6083 868.62L58.4816 866.808L53.2659 864L53.0999 866.484Z" fill="#D3D3D5" fill-opacity="0.8"/>
</g>
<defs>
<filter id="filter0_f_146_171" x="-311.2" y="0.799999" width="1009.4" height="1361.9" filterUnits="userSpaceOnUse" color-interpolation-filters="sRGB">
<feFlood flood-opacity="0" result="BackgroundImageFix"/>
<feBlend mode="normal" in="SourceGraphic" in2="BackgroundImageFix" result="shape"/>
<feGaussianBlur stdDeviation="16.1" result="effect1_foregroundBlur_146_171"/>
</filter>
</defs>
</svg>
