<svg width="1033" height="1396" viewBox="0 0 1033 1396" fill="none" xmlns="http://www.w3.org/2000/svg">
<g style="mix-blend-mode:darken" filter="url(#filter0_f_146_169)">
<path fill-rule="evenodd" clip-rule="evenodd" d="M854.789 236.63L699.427 33L719.329 128.404L639.707 121.231L677.769 147.294L626.517 146.571L671.386 187.186L685.447 152.551L694.059 158.448L681.5 180L718.293 194.529L694.375 158.665L730.853 183.643C730.853 183.643 739.326 210.465 740.155 228.236C643.051 158.665 542.279 158.98 432.279 187.186C616.5 199.7 798.298 375.749 798.298 375.749L828.31 406.017C828.31 406.017 849.954 432.279 859.121 446.964C868.83 462.518 876.845 478.462 882.797 493.628C859.946 480.398 836.121 468.551 810.683 458.203C763.172 438.877 710.475 424.958 648.509 416.803L561.489 321.866L606.697 325.585L608.975 299.407L555.348 315.167L553.773 313.449L553.831 315.613L538.879 320.007L553.983 321.249L555.166 365.221C555.166 365.221 454 241 337.612 199.7C415 271 402.389 325.87 402.389 325.87C402.389 325.87 323 215.5 33 215.5C260 270.5 274.482 353.476 274.482 353.476C274.482 353.476 200 321 89 388.731C235 388.731 300.743 444.663 300.743 444.663C300.743 444.663 186.373 428.558 133 471C302.873 460.395 351 488 351 488C351 488 203 486.996 165 516.996C202.246 501.89 366 532 366 532C366 532 409.606 510.579 427.5 505C448.683 498.395 432.279 516.996 432.279 516.996L366 564C366 564 617.321 455.071 650.784 487.35C651.144 480.138 650.317 472.69 648.129 465.226C646.822 460.768 645.11 456.579 643.051 452.676C702.633 460.463 752.468 473.7 796.896 491.76L746.902 518.125L706.694 514.7L724.062 530.169C724.062 530.169 703.5 523.5 670.29 535.081C746.902 543.5 720.75 581.689 720.75 581.689C720.75 581.689 664.204 577.402 632.422 591.327C798.298 627 876.5 654.5 876.5 654.5C876.5 654.5 779.5 682.518 740.808 731C909.814 670.674 1177.43 860.5 1177.43 860.5L1096.7 605.17L1179.12 588.267L1033.3 404.211L961.694 536.419L945.982 535.081C940.315 530.944 934.624 526.894 928.896 522.933C923.717 493.156 909.384 458.975 889.896 427.754C880.653 412.946 870.04 398.468 858.358 385.193C861.039 382.278 863.556 379.13 865.883 375.749L900.529 352.98L895.266 346.082L902.5 345L855.588 183.998L854.789 236.63ZM800.452 522.686L798.298 492.332C823.845 502.802 847.757 514.933 870.85 528.682L800.452 522.686ZM879.943 682.518L879.318 684.957L881.717 683.211L879.943 682.518Z" fill="#D3D3D5" fill-opacity="0.8"/>
<path d="M1029.24 871.333L903.812 978.87L1006.13 994.106L935.703 1037.61L1139.3 1011.89C1164.92 1008.65 1182.43 984.371 1177.43 959.033C1174.6 944.717 1165.47 933.792 1153.84 927.918C1153.75 920.641 1152.59 913.185 1150.21 905.715C1133.83 854.25 1070.24 836.179 1029.24 871.333Z" fill="#D3D3D5" fill-opacity="0.8"/>
<path d="M1085.66 1268.48C1095.25 1257.13 1100.05 1241.61 1096.7 1225.13C1089.36 1189.07 1047.61 1172.19 1017.27 1193L924.462 1256.68L953.738 1264.32L909.305 1330.68L979.236 1321.95L940.986 1363.39L1069.87 1309.24C1085.79 1302.55 1092.87 1284.01 1085.66 1268.48Z" fill="#D3D3D5" fill-opacity="0.8"/>
<path d="M617.725 717.211L657.47 715.172L653.833 726.881L659.083 722.452L667.219 744.85L687.892 747.545L684.522 753.986L715.304 767.141L756.418 773.746L751.334 782.538L754.451 783.87L750.706 783.625L740.808 800.741L708.67 780.871L671.722 778.451L670.29 781.188L645.748 764.029L596.819 774.986L626.093 750.286L619.981 746.013L620.495 752.581L543.5 748.73L591.819 726.537L576.111 719.347L611.418 717.535L617.53 714.727L617.725 717.211Z" fill="#D3D3D5" fill-opacity="0.8"/>
<path d="M671.5 415L742.611 368.099L744.664 409.574L671.5 415Z" fill="#D3D3D5" fill-opacity="0.8"/>
<path d="M783.69 440.918L769.69 371.453L838 435L783.69 440.918Z" fill="#D3D3D5" fill-opacity="0.8"/>
<path d="M932.75 469C943.75 448.5 918.25 322 918.25 322L997.061 459.082C997.061 459.082 955.25 450 932.75 469Z" fill="#D3D3D5" fill-opacity="0.8"/>
<path d="M953.425 874.715C964.425 854.215 879.318 860.5 879.318 860.5L1030.66 793.5C1030.66 793.5 975.925 855.715 953.425 874.715Z" fill="#D3D3D5" fill-opacity="0.8"/>
</g>
<defs>
<filter id="filter0_f_146_169" x="0.799999" y="0.799999" width="1210.52" height="1394.79" filterUnits="userSpaceOnUse" color-interpolation-filters="sRGB">
<feFlood flood-opacity="0" result="BackgroundImageFix"/>
<feBlend mode="normal" in="SourceGraphic" in2="BackgroundImageFix" result="shape"/>
<feGaussianBlur stdDeviation="16.1" result="effect1_foregroundBlur_146_169"/>
</filter>
</defs>
</svg>
